# xmcd
#
# Track frame offsets:
# 150
# 19399
# 37186
# 52602
# 69415
# 90733
# 109885
# 129101
# 143664
# 161570
# 178086
# 204103
# 225183
#
# Disc length: 3198 seconds
#
#
# Revision: 1
# Processed by: cddbd v1.5.1PL0 Copyright (c) Steve Scherf et al.
# Submitted via: FreeRIP 2.80 
#
DISCID=9f0c7c0d
DTITLE=Kim Richey - Rise
DYEAR=2002
DGENRE=Pop-Folk
TTITLE0=Girl In A Car
TTITLE1=A Place Called Home
TTITLE2=Me And You
TTITLE3=The Circus Song (Can't Let Go)
TTITLE4=Fading
TTITLE5=Without You
TTITLE6=Reel Me In
TTITLE7=No Judges
TTITLE8=This Love
TTITLE9=Good Day Here
TTITLE10=Electric Green
TTITLE11=Hard To Say Goodbye
TTITLE12=Cowards In A Brave New World
EXTD=
EXTT0=
EXTT1=
EXTT2=
EXTT3=
EXTT4=
EXTT5=
EXTT6=
EXTT7=
EXTT8=
EXTT9=
EXTT10=
EXTT11=
EXTT12=
PLAYORDER=
